<svg version="1.1" id="Layer_1" xmlns="http://www.w3.org/2000/svg" xmlns:xlink="http://www.w3.org/1999/xlink" x="0px" y="0px"
	 width="100%" viewBox="0 0 1024 1024" enable-background="new 0 0 1024 1024" xml:space="preserve">
<path fill="#cba6f7" opacity="1.000000" stroke="none"
	d="
M172.979172,981.968994
	C183.966949,962.812195 194.918823,943.634644 205.950790,924.503296
	C223.241241,894.518738 240.625885,864.588196 257.779175,834.525574
	C258.569733,833.140137 257.990082,830.454285 257.203491,828.768372
	C249.919693,813.156311 241.654846,797.950073 235.249557,781.993896
	C228.332916,764.763794 224.680557,746.507019 221.887909,728.087830
	C218.629745,706.598206 218.875748,685.011047 218.885040,663.408020
	C218.937943,540.418091 218.583817,417.425415 219.368362,294.440063
	C219.573853,262.228668 227.276520,230.914795 239.961807,201.083755
	C253.022507,170.369888 271.252380,143.192200 295.374207,120.010269
	C320.344666,96.012772 349.324524,78.473236 381.502441,65.992027
	C404.689819,56.998089 428.563385,50.258194 453.225891,47.396000
	C473.989441,44.986309 494.963409,43.319675 515.848389,43.275295
	C547.891052,43.207195 579.725281,46.494942 610.822876,54.944263
	C635.478760,61.643364 659.307129,70.442291 681.460083,83.317657
	C685.494385,85.662407 687.366821,84.931648 689.569702,80.977272
	C698.966370,64.109390 708.721924,47.441822 718.205627,30.621700
	C720.106506,27.250204 722.273560,25.778652 726.410706,25.797779
	C766.740051,25.984215 807.070557,25.909971 847.400757,25.909964
	C849.149719,25.909962 850.898682,25.909964 853.889771,25.909964
	C848.176147,35.851849 843.077148,44.739880 837.963440,53.619385
	C816.031555,91.702209 794.060486,129.762634 772.282104,167.932999
	C771.362793,169.544312 771.420959,172.636902 772.367676,174.251419
	C787.432861,199.943939 797.731567,227.470398 802.209412,256.815674
	C805.030457,275.303986 806.887451,294.134583 806.942749,312.818207
	C807.317322,439.473633 807.607300,566.133972 806.839111,692.786072
	C806.488525,750.580566 788.877441,803.393188 753.491943,849.578186
	C732.995300,876.330261 707.684143,897.761536 678.271179,914.286255
	C644.515381,933.250732 608.304199,944.567322 570.051697,950.259216
	C544.068115,954.125488 517.985596,954.997986 491.933716,953.773682
	C456.543457,952.110474 421.682739,946.397400 388.509399,933.253723
	C375.126190,927.951172 362.158722,921.583618 349.098389,915.494141
	C346.318207,914.197876 345.103943,914.101929 343.367432,917.160156
	C331.433533,938.177673 319.202667,959.026428 307.099060,979.947937
	C305.599609,982.539734 303.917786,984.016846 300.491760,984.004150
	C258.328430,983.848511 216.164398,983.883301 173.520599,983.525696
	C173.020142,982.777954 172.999664,982.373474 172.979172,981.968994
M653.430298,376.950195
	C653.456970,376.827362 653.483643,376.704529 653.510315,376.581696
	C653.313110,376.698547 653.115906,376.815399 652.482666,377.166534
	C652.207214,377.385010 652.051819,377.669189 651.726990,378.642578
	C646.065796,388.414703 640.387695,398.177063 634.746399,407.960632
	C614.031250,443.886230 593.304993,479.805450 572.627869,515.752930
	C554.279541,547.651733 536.027771,579.606201 517.665649,611.497131
	C497.928589,645.776245 478.081543,679.992126 458.342834,714.270325
	C446.452759,734.918579 434.749664,755.674683 422.822327,776.301208
	C416.319489,787.546875 416.261108,787.362305 427.248871,794.834045
	C450.369019,810.555725 476.408997,817.304199 503.817108,818.773132
	C515.992859,819.425781 528.436707,818.547424 540.521057,816.757874
	C571.829773,812.121460 599.345093,799.435791 620.997864,775.635986
	C642.379211,752.134583 652.469116,723.619568 652.715332,692.688171
	C653.550781,587.729431 653.104309,482.760529 653.143494,377.452850
	C653.143494,377.452850 653.127991,377.110504 653.430298,376.950195
M481.859772,443.300995
	C483.494934,440.421509 485.130005,437.541962 486.765228,434.662567
	C496.728180,417.119507 506.642639,399.548706 516.666016,382.040222
	C530.384216,358.077637 544.206543,334.174652 557.943481,310.222748
	C567.486145,293.584167 576.932800,276.890503 586.473022,260.250519
	C594.942566,245.478104 603.557007,230.787689 611.858337,215.921936
	C612.578857,214.631714 612.124573,211.561234 611.054932,210.567978
	C599.180237,199.541214 585.217590,191.667007 570.078125,186.365494
	C541.901245,176.498535 512.638062,175.094543 483.414551,179.327515
	C452.922699,183.744202 426.285095,196.505630 405.229340,219.992065
	C384.840820,242.734299 373.665192,269.704834 373.399689,299.491943
	C372.425476,408.803772 372.920959,518.128723 372.863312,627.448730
	C372.862640,628.682800 372.863220,629.916809 372.863220,632.643372
	C375.081818,628.985229 376.558319,626.668213 377.920654,624.285889
	C390.151978,602.896729 402.341553,581.483582 414.586182,560.102051
	C428.400299,535.979797 442.237213,511.870483 456.105774,487.779480
	C464.530670,473.144653 473.034180,458.555084 481.859772,443.300995
z"/>
</svg>
