<svg version="1.1" id="Layer_1" xmlns="http://www.w3.org/2000/svg" xmlns:xlink="http://www.w3.org/1999/xlink" x="0px" y="0px"
	 width="100%" viewBox="0 0 1024 1024" enable-background="new 0 0 1024 1024" xml:space="preserve">
<path fill="#C9A5F5" opacity="1.000000" stroke="none"
	d="
M270.972870,951.000671
	C269.634888,950.184570 268.069336,949.596375 266.991516,948.519775
	C202.147919,883.753906 137.333450,818.958923 72.610245,754.072815
	C71.205750,752.664856 70.170769,750.170959 70.169373,748.182800
	C70.057869,588.877869 70.054573,429.572876 70.190193,270.267975
	C70.192116,268.014038 71.498260,265.213226 73.118614,263.587524
	C138.754913,197.736328 204.497650,131.991196 271.009644,66.117126
	C432.907013,66.007416 594.021545,66.013123 755.136108,66.018845
	C773.203552,83.965439 791.314331,101.868744 809.330200,119.866989
	C857.195007,167.684647 905.006165,215.556046 952.901123,263.343445
	C955.033630,265.471191 955.971924,267.501831 955.970093,270.607391
	C955.876892,429.755890 955.875305,588.904480 955.981750,748.052979
	C955.983826,751.088013 954.799927,752.854187 952.873596,754.778625
	C888.385864,819.203064 823.935303,883.664856 759.447815,948.089600
	C758.373047,949.163330 756.909119,949.847473 754.823364,950.847473
	C593.004272,950.987915 431.988556,950.994263 270.972870,951.000671
M864.291199,798.791687
	C883.498596,779.583130 902.767761,760.435364 921.814148,741.068481
	C923.646118,739.205627 925.045288,735.982361 925.047913,733.388977
	C925.200500,583.568298 925.174072,433.747498 925.249573,283.926727
	C925.251221,280.660950 924.272034,278.393280 921.975891,276.102173
	C862.755676,217.010834 803.624573,157.830032 744.342346,98.801079
	C742.501343,96.967979 739.217468,95.660637 736.604736,95.658043
	C587.283997,95.509743 437.963165,95.509369 288.642517,95.663460
	C286.045563,95.666138 282.801849,97.073715 280.949005,98.919167
	C221.911057,157.721252 163.028091,216.678909 104.022652,275.513733
	C101.192162,278.336029 100.079483,281.096161 100.082123,285.076141
	C100.180992,434.230255 100.176834,583.384460 100.098000,732.538574
	C100.096107,736.115356 101.002235,738.667236 103.604118,741.262146
	C162.839752,800.338562 221.994843,859.495789 281.071442,918.731140
	C283.583344,921.249817 286.114410,921.878296 289.444214,921.876953
	C438.265045,921.815857 587.085938,921.810852 735.906738,921.898987
	C739.702820,921.901245 742.366272,920.820740 745.055908,918.120300
	C784.570312,878.447021 824.193726,838.882263 864.291199,798.791687
z"/>
<path fill="#E0DBE7" opacity="1.000000" stroke="none"
	d="
M754.943848,65.617378
	C594.021545,66.013123 432.907013,66.007416 271.314331,65.993591
	C272.173523,65.657036 273.510773,65.041283 274.848175,65.040924
	C433.991241,64.997803 593.134277,64.999901 752.277344,65.009155
	C753.102112,65.009209 753.926819,65.144035 754.943848,65.617378
z"/>
<path fill="#D8BCF9" opacity="1.000000" stroke="none"
	d="
M271.143372,951.406616
	C431.988556,950.994263 593.004272,950.987915 754.483398,950.978821
	C753.834961,951.317566 752.723083,951.957764 751.611084,951.958069
	C592.005737,952.001160 432.400391,951.998108 272.795044,951.989136
	C272.301331,951.989136 271.807587,951.873901 271.143372,951.406616
z"/>
<path fill="#1E1E2E" opacity="1.000000" stroke="none"
	d="
M864.041199,799.041748
	C824.193726,838.882263 784.570312,878.447021 745.055908,918.120300
	C742.366272,920.820740 739.702820,921.901245 735.906738,921.898987
	C587.085938,921.810852 438.265045,921.815857 289.444214,921.876953
	C286.114410,921.878296 283.583344,921.249817 281.071442,918.731140
	C221.994843,859.495789 162.839752,800.338562 103.604118,741.262146
	C101.002235,738.667236 100.096107,736.115356 100.098000,732.538574
	C100.176834,583.384460 100.180992,434.230255 100.082123,285.076141
	C100.079483,281.096161 101.192162,278.336029 104.022652,275.513733
	C163.028091,216.678909 221.911057,157.721252 280.949005,98.919167
	C282.801849,97.073715 286.045563,95.666138 288.642517,95.663460
	C437.963165,95.509369 587.283997,95.509743 736.604736,95.658043
	C739.217468,95.660637 742.501343,96.967979 744.342346,98.801079
	C803.624573,157.830032 862.755676,217.010834 921.975891,276.102173
	C924.272034,278.393280 925.251221,280.660950 925.249573,283.926727
	C925.174072,433.747498 925.200500,583.568298 925.047913,733.388977
	C925.045288,735.982361 923.646118,739.205627 921.814148,741.068481
	C902.767761,760.435364 883.498596,779.583130 864.041199,799.041748
M414.365967,389.890350
	C404.856110,406.916138 401.446808,425.388947 401.439911,444.651093
	C401.423706,489.807220 401.459595,534.963379 401.426025,580.119507
	C401.411285,599.949280 405.326111,618.759094 415.099609,636.227905
	C415.963226,637.771606 415.696045,640.733887 414.772339,642.370117
	C405.531158,658.739014 396.040771,674.967346 386.625000,691.237854
	C385.783051,692.692749 384.971710,694.165466 383.840515,696.172119
	C400.342773,696.172119 415.834106,696.270630 431.320007,696.025818
	C432.942230,696.000183 435.095642,694.296204 436.042023,692.773682
	C440.685089,685.304321 445.003143,677.632812 449.574188,669.795837
	C479.574524,686.070496 511.214874,688.580566 543.806824,681.839905
	C567.660278,676.906555 588.031128,665.621643 603.398071,646.242249
	C618.893982,626.700073 624.572205,604.007202 624.592468,579.555908
	C624.629517,534.733032 624.602539,489.910126 624.603333,445.087250
	C624.603638,425.999359 621.410400,407.684998 611.993469,390.742889
	C611.221008,389.353027 611.763672,386.600494 612.651367,385.017242
	C621.437073,369.347107 630.429016,353.792664 639.348633,338.197510
	C640.208618,336.693970 640.975037,335.136932 642.018372,333.163025
	C625.724609,333.163025 610.230835,333.080048 594.741150,333.292847
	C593.211243,333.313873 591.144714,334.799377 590.285522,336.195099
	C586.286377,342.691559 582.624390,349.395569 578.795166,356.106995
	C575.252380,354.305023 572.067200,352.531433 568.759521,351.027100
	C544.200012,339.857697 518.346802,337.488068 492.034271,341.274597
	C459.477325,345.959747 432.105347,359.727081 414.365967,389.890350
z"/>
<path fill="#CAA5F6" opacity="1.000000" stroke="none"
	d="
M414.574921,389.588074
	C432.105347,359.727081 459.477325,345.959747 492.034271,341.274597
	C518.346802,337.488068 544.200012,339.857697 568.759521,351.027100
	C572.067200,352.531433 575.252380,354.305023 578.795166,356.106995
	C582.624390,349.395569 586.286377,342.691559 590.285522,336.195099
	C591.144714,334.799377 593.211243,333.313873 594.741150,333.292847
	C610.230835,333.080048 625.724609,333.163025 642.018372,333.163025
	C640.975037,335.136932 640.208618,336.693970 639.348633,338.197510
	C630.429016,353.792664 621.437073,369.347107 612.651367,385.017242
	C611.763672,386.600494 611.221008,389.353027 611.993469,390.742889
	C621.410400,407.684998 624.603638,425.999359 624.603333,445.087250
	C624.602539,489.910126 624.629517,534.733032 624.592468,579.555908
	C624.572205,604.007202 618.893982,626.700073 603.398071,646.242249
	C588.031128,665.621643 567.660278,676.906555 543.806824,681.839905
	C511.214874,688.580566 479.574524,686.070496 449.574188,669.795837
	C445.003143,677.632812 440.685089,685.304321 436.042023,692.773682
	C435.095642,694.296204 432.942230,696.000183 431.320007,696.025818
	C415.834106,696.270630 400.342773,696.172119 383.840515,696.172119
	C384.971710,694.165466 385.783051,692.692749 386.625000,691.237854
	C396.040771,674.967346 405.531158,658.739014 414.772339,642.370117
	C415.696045,640.733887 415.963226,637.771606 415.099609,636.227905
	C405.326111,618.759094 401.411285,599.949280 401.426025,580.119507
	C401.459595,534.963379 401.423706,489.807220 401.439911,444.651093
	C401.446808,425.388947 404.856110,406.916138 414.574921,389.588074
M484.795807,520.266235
	C506.923035,481.644287 529.050232,443.022339 551.233093,404.303223
	C536.703796,391.708313 519.959045,389.213165 502.190277,391.528564
	C489.738983,393.151031 479.039459,398.614502 470.900543,408.489441
	C462.893433,418.204407 459.908752,429.590332 459.901062,441.924835
	C459.876556,481.077789 459.884583,520.230774 459.888794,559.383728
	C459.888885,560.116150 459.997192,560.848633 460.172424,563.069397
	C468.741302,548.144104 476.567474,534.512390 484.795807,520.266235
M507.067291,568.577515
	C496.978119,586.162903 486.888947,603.748291 476.718109,621.476013
	C486.027405,629.690186 496.966003,632.868042 508.860291,633.638062
	C521.810059,634.476379 534.180725,632.579590 545.096375,625.173706
	C560.556580,614.684387 566.182617,599.322815 566.153442,581.259094
	C566.094238,544.610168 566.140808,507.961151 566.125122,471.312195
	C566.124634,470.123901 565.920349,468.935699 565.715637,466.710663
	C545.904419,501.118134 526.667358,534.528381 507.067291,568.577515
z"/>
<path fill="#1F1F2F" opacity="1.000000" stroke="none"
	d="
M484.594727,520.573486
	C476.567474,534.512390 468.741302,548.144104 460.172424,563.069397
	C459.997192,560.848633 459.888885,560.116150 459.888794,559.383728
	C459.884583,520.230774 459.876556,481.077789 459.901062,441.924835
	C459.908752,429.590332 462.893433,418.204407 470.900543,408.489441
	C479.039459,398.614502 489.738983,393.151031 502.190277,391.528564
	C519.959045,389.213165 536.703796,391.708313 551.233093,404.303223
	C529.050232,443.022339 506.923035,481.644287 484.594727,520.573486
z"/>
<path fill="#1F1F2F" opacity="1.000000" stroke="none"
	d="
M507.248779,568.258057
	C526.667358,534.528381 545.904419,501.118134 565.715637,466.710663
	C565.920349,468.935699 566.124634,470.123901 566.125122,471.312195
	C566.140808,507.961151 566.094238,544.610168 566.153442,581.259094
	C566.182617,599.322815 560.556580,614.684387 545.096375,625.173706
	C534.180725,632.579590 521.810059,634.476379 508.860291,633.638062
	C496.966003,632.868042 486.027405,629.690186 476.718109,621.476013
	C486.888947,603.748291 496.978119,586.162903 507.248779,568.258057
z"/>
</svg>
